<?xml version="1.0" standalone="no"?>
<!DOCTYPE svg PUBLIC "-//W3C//DTD SVG 20010904//EN"
 "http://www.w3.org/TR/2001/REC-SVG-20010904/DTD/svg10.dtd">
<svg version="1.0" xmlns="http://www.w3.org/2000/svg"
 width="568.000000pt" height="385.000000pt" viewBox="0 0 568.000000 385.000000"
 preserveAspectRatio="xMidYMid meet">
<metadata>
Created by potrace 1.11, written by Peter Selinger 2001-2013
</metadata>
<g transform="translate(0.000000,385.000000) scale(0.100000,-0.100000)"
fill="#000000" stroke="none">
<path d="M0 1925 l0 -1925 2840 0 2840 0 0 1925 0 1925 -2840 0 -2840 0 0
-1925z m5659 1901 c8 -10 10 -517 9 -1912 l-3 -1899 -2814 -3 c-2072 -1 -2817
1 -2827 9 -12 10 -14 325 -14 1909 0 1043 3 1900 7 1903 3 4 1272 7 2818 7
2355 0 2814 -2 2824 -14z"/>
<path d="M3500 2894 c-11 -25 -20 -48 -20 -50 0 -2 -15 -37 -34 -78 -74 -159
-100 -223 -116 -281 l-17 -60 -81 -3 c-75 -3 -82 -5 -82 -23 0 -40 19 -59 58
-59 60 0 72 -15 62 -79 -15 -87 -32 -460 -24 -528 l6 -63 -57 -55 c-52 -50
-90 -67 -108 -49 -3 3 1 27 9 52 19 64 17 103 -9 201 l-23 85 68 58 68 59 0
68 c0 63 -2 69 -33 99 -30 29 -39 32 -94 32 -55 0 -65 -3 -92 -30 -17 -17 -33
-46 -37 -66 -7 -39 2 -132 18 -183 10 -31 8 -35 -18 -57 -16 -12 -55 -47 -88
-77 -54 -50 -61 -54 -86 -44 -39 15 -106 -7 -141 -44 -20 -22 -30 -45 -34 -84
-7 -51 -11 -57 -59 -93 -28 -22 -65 -47 -83 -56 -40 -20 -131 -21 -159 -1 -20
14 -17 19 107 145 185 191 225 277 200 430 -9 57 -16 70 -50 103 -37 34 -44
37 -102 37 -74 0 -116 -18 -163 -71 -94 -103 -129 -233 -124 -452 3 -148 3
-148 -22 -167 -14 -11 -32 -20 -41 -20 -9 0 -34 -7 -54 -16 -108 -45 -153 86
-102 296 46 190 53 291 24 328 -13 17 -62 15 -77 -3 -9 -10 -31 -15 -74 -15
-67 0 -156 36 -209 84 -26 24 -28 31 -30 123 -3 134 -32 197 -133 292 -96 91
-153 111 -323 111 -64 0 -136 -5 -160 -11 -122 -28 -236 -123 -294 -246 -30
-64 -32 -74 -32 -183 0 -92 4 -124 19 -158 25 -55 98 -112 143 -112 18 0 33 4
33 10 0 5 -22 31 -49 58 -125 125 -119 323 15 456 78 78 229 132 350 124 82
-5 181 -54 229 -112 173 -212 66 -500 -208 -560 -95 -20 -141 -12 -145 28 -2
15 3 98 12 185 9 86 18 200 22 254 l7 97 -30 0 c-44 0 -61 -19 -66 -75 -3 -27
-10 -86 -16 -130 -13 -99 -28 -228 -42 -365 -11 -110 -5 -360 12 -485 15 -110
50 -288 62 -310 5 -10 10 -32 9 -47 0 -15 2 -29 6 -32 4 -2 40 -7 80 -11 68
-7 72 -6 72 13 0 12 -18 63 -40 113 -61 141 -97 305 -105 480 -4 96 -3 149 4
153 5 4 76 16 157 27 138 19 150 22 203 58 71 49 141 124 165 179 11 23 23 42
28 42 10 0 4 -363 -7 -422 -7 -35 -5 -38 15 -38 28 0 67 44 75 85 19 94 65
225 80 226 6 0 46 1 90 2 l80 2 -3 -35 c-1 -19 -16 -88 -32 -154 -32 -125 -37
-206 -20 -297 8 -44 18 -60 48 -86 58 -51 125 -46 273 19 l45 20 39 -26 c33
-23 48 -26 124 -26 l87 0 76 55 c42 30 79 55 83 55 4 0 16 -11 26 -24 34 -44
84 -67 156 -73 80 -6 138 7 174 40 38 36 63 47 107 47 61 0 140 28 158 55 18
28 34 24 34 -7 0 -28 69 -93 115 -108 32 -10 43 -9 88 10 29 12 59 29 68 37
15 12 19 10 37 -20 15 -26 30 -37 65 -46 50 -12 110 -14 142 -5 18 5 64 56
100 109 13 20 14 20 40 -5 23 -22 36 -25 99 -25 65 0 79 4 125 33 29 18 57 30
62 26 21 -13 5 -36 -71 -99 -135 -113 -250 -298 -250 -403 0 -135 149 -196
278 -113 28 18 61 49 73 69 67 109 73 125 77 214 4 76 1 96 -23 162 -15 41
-24 79 -20 85 7 13 79 51 94 51 6 0 20 -19 32 -42 12 -24 40 -64 61 -90 49
-57 101 -73 218 -66 64 4 86 10 117 31 88 60 183 168 183 208 0 32 -33 22 -96
-30 -105 -84 -148 -105 -204 -98 -47 6 -142 47 -155 67 -3 5 -17 40 -30 77
-22 60 -23 69 -9 84 8 9 34 20 57 23 68 11 208 56 261 84 99 54 154 150 143
249 -9 86 -89 129 -222 121 -146 -10 -270 -116 -317 -273 -28 -95 -38 -102
-38 -27 0 87 -27 191 -58 225 -40 43 -118 77 -176 77 -99 0 -179 -67 -241
-203 -30 -64 -56 -235 -48 -307 4 -39 1 -51 -29 -95 -37 -52 -63 -65 -113 -55
-27 5 -31 11 -39 54 -14 70 20 350 60 492 19 68 18 87 -7 118 -25 32 -66 34
-102 6 -19 -15 -30 -38 -41 -88 -16 -73 -39 -310 -41 -437 -1 -44 -2 -86 -3
-93 -1 -7 -25 -23 -54 -36 -46 -21 -55 -22 -87 -11 -29 10 -40 21 -58 66 -22
50 -23 64 -18 189 8 181 43 538 56 561 12 23 40 24 80 3 17 -8 45 -14 62 -12
29 3 32 7 35 39 4 42 -6 51 -70 69 -82 22 -83 9 17 240 20 47 48 112 62 145
14 33 36 71 49 86 13 14 24 30 24 37 0 17 -34 32 -75 32 -33 0 -37 -4 -55 -46z
m-405 -740 c18 -7 45 -55 45 -80 0 -17 -83 -104 -99 -104 -12 0 -28 47 -35
101 -8 68 32 105 89 83z m-606 -48 c30 -16 51 -53 51 -90 0 -48 -43 -161 -80
-210 -42 -57 -153 -166 -187 -184 -30 -17 -35 -6 -41 98 -14 243 126 453 257
386z m1708 -46 c24 -10 51 -33 62 -50 19 -32 19 -32 -5 -108 -16 -52 -24 -101
-24 -152 0 -75 -1 -77 -37 -111 -104 -98 -165 -119 -229 -80 -43 26 -58 75
-50 162 15 148 95 301 179 343 41 20 53 20 104 -4z m576 -11 c29 -8 40 -18 52
-46 8 -19 12 -46 9 -60 -11 -42 -99 -120 -178 -158 -70 -34 -159 -58 -171 -47
-12 12 -3 47 35 134 64 150 145 207 253 177z m-1754 -230 c22 -63 8 -249 -18
-249 -16 0 -74 51 -108 94 -19 25 -40 46 -44 46 -23 0 -3 23 67 79 42 34 80
61 84 61 5 0 13 -14 19 -31z m-133 -223 l86 -83 -34 -21 c-18 -11 -55 -23 -81
-27 -40 -6 -59 -3 -110 19 -39 16 -69 37 -80 54 l-17 27 63 57 c34 32 68 57
75 58 7 0 51 -38 98 -84z m1349 -200 c63 -150 -11 -362 -142 -405 -56 -19 -98
-2 -113 44 -9 27 -7 42 11 90 29 78 123 235 140 235 5 0 25 16 45 35 19 19 38
35 40 35 3 0 11 -15 19 -34z"/>
<path d="M3646 2388 c-38 -53 -1 -118 66 -118 42 0 57 15 65 64 8 51 -16 76
-73 76 -33 0 -46 -5 -58 -22z"/>
</g>
</svg>
